<svg width="98" height="52" viewBox="0 0 98 52" fill="none" xmlns="http://www.w3.org/2000/svg">
    <path
        d="M10.0734 0.519379H0.208008V39.5235H10.0734C16.2669 39.5235 21.067 37.8063 24.34 34.4241C27.6102 31.0418 29.2658 26.0412 29.2658 19.5592C29.2658 13.0773 27.6048 8.61151 24.3318 5.38015C21.0588 2.15426 16.2614 0.519379 10.0734 0.519379ZM26.807 19.5592C26.807 22.5437 26.4409 25.1853 25.7169 27.4154C25.0203 29.5605 23.9712 31.382 22.597 32.8276C21.2282 34.2677 19.5152 35.3677 17.5045 36.0946C15.4254 36.8462 12.9611 37.2275 10.1854 37.2275H2.69962V2.81809H10.1826C12.9693 2.81809 15.4391 3.18293 17.5291 3.90436C19.5426 4.59836 21.2555 5.64623 22.627 7.02052C23.993 8.38932 25.0339 10.112 25.7251 12.1391C26.4437 14.2431 26.807 16.7421 26.807 19.562V19.5592Z"
        fill="#002B36" />
    <path
        d="M65.2349 0.563286H55.5089V36.6954L55.3805 36.7557C53.662 37.5485 51.8425 37.949 49.9656 37.949C48.0887 37.949 46.2692 37.5485 44.5507 36.7557L44.4223 36.6954V0.563286H34.6963V24.8479C34.6963 33.2994 41.5455 40.1764 49.9629 40.1764C58.3802 40.1764 65.2294 33.2994 65.2294 24.8479V24.8287V0.991209V0.563286H65.2349ZM42.2066 35.3787L41.8515 35.0961C38.7178 32.5972 36.9202 28.8611 36.9202 24.8479V2.79068H42.2066V35.3787ZM63.0165 24.9659C62.981 28.9351 61.1833 32.6246 58.0852 35.0961L57.73 35.3787V2.79068H63.0165V24.9659Z"
        fill="#002B36" />
    <path
        d="M97.9583 2.81267V0.530411H71.6816V39.5702H97.9583V37.2879H73.9574V21.1914H93.1281V18.9092H73.9574V2.81267H97.9583Z"
        fill="#002B36" />
    <path d="M1.05183 44.5268H0V51.3105H1.05183V44.5268Z" fill="#002B36" />
    <path
        d="M8.31177 49.1626L4.36945 44.5268H3.82031V51.3105H4.86395V46.7103L8.7325 51.3105H9.35267V44.5268H8.31177V49.1626Z"
        fill="#002B36" />
    <path
        d="M15.2689 50.3916C14.5749 50.3916 13.9985 50.1611 13.5313 49.7031C13.0641 49.245 12.8373 48.6552 12.8373 47.9392C12.8373 47.2233 13.075 46.6253 13.5422 46.148C14.0176 45.6707 14.594 45.432 15.2798 45.432C16.1486 45.432 16.8534 45.7996 17.4108 46.543L18.1593 45.8627C17.867 45.4211 17.4654 45.0727 16.9436 44.8066C16.4218 44.5405 15.8644 44.4034 15.2525 44.4034C14.2826 44.4034 13.4602 44.7326 12.7745 45.4046C12.0888 46.0657 11.75 46.9106 11.75 47.9392C11.75 48.9679 12.0888 49.7853 12.7554 50.4355C13.422 51.0883 14.2471 51.4093 15.2251 51.4093C16.4682 51.4093 17.5665 50.8222 18.1976 49.9499L17.449 49.2888C16.8917 50.024 16.1595 50.3916 15.2716 50.3916H15.2689Z"
        fill="#002B36" />
    <path
        d="M23.3745 44.4064C22.4047 44.4064 21.5823 44.7547 20.8966 45.4433C20.2108 46.1318 19.8721 46.9684 19.8721 47.9505C19.8721 48.9325 20.1999 49.7499 20.8693 50.4192C21.5359 51.0886 22.3691 51.4205 23.3472 51.4205C24.3253 51.4205 25.1749 51.0803 25.8607 50.4028C26.5464 49.7225 26.8852 48.8968 26.8852 47.923C26.8852 46.9492 26.5464 46.1236 25.8607 45.435C25.1749 44.7465 24.3526 44.4064 23.3745 44.4064ZM25.0848 49.6841C24.6176 50.1532 24.0521 50.3808 23.3745 50.3808C22.697 50.3808 22.1205 50.1422 21.6561 49.6731C21.1998 49.2041 20.9703 48.617 20.9703 47.9285C20.9703 47.24 21.1998 46.6338 21.6643 46.1647C22.1315 45.6874 22.7079 45.4487 23.3745 45.4487C24.0411 45.4487 24.6176 45.6874 25.0848 46.1565C25.552 46.6255 25.7896 47.2208 25.7896 47.9285C25.7896 48.6362 25.552 49.215 25.0848 49.6813V49.6841Z"
        fill="#002B36" />
    <path
        d="M33.8529 46.5924C33.8529 46.0245 33.6617 45.5363 33.2874 45.133C32.9131 44.7298 32.3721 44.5268 31.67 44.5268H29.2822V51.3105H30.3341V48.6469H31.2302L32.8748 51.3105H34.1452L32.3448 48.5482C33.3229 48.2821 33.8529 47.4839 33.8529 46.5924ZM30.3313 47.6677V45.528H31.6673C32.3612 45.528 32.7656 45.9861 32.7656 46.5841C32.7656 47.1821 32.353 47.6677 31.5034 47.6677H30.3341H30.3313Z"
        fill="#002B36" />
    <path
        d="M39.5111 44.5268H37.1807V51.3105H38.2325V48.7951H39.4209C40.1886 48.7951 40.7733 48.5921 41.1667 48.1806C41.5601 47.7664 41.7623 47.2727 41.7623 46.6747C41.7623 46.0767 41.571 45.5719 41.1858 45.1605C40.8115 44.738 40.2542 44.5268 39.5138 44.5268H39.5111ZM39.4482 47.8213H38.2325V45.5171H39.5575C40.2788 45.5171 40.6913 46.0218 40.6913 46.6555C40.6913 47.2891 40.2624 47.8213 39.4482 47.8213Z"
        fill="#002B36" />
    <path
        d="M47.1177 44.4064C46.1478 44.4064 45.3255 44.7547 44.6397 45.4433C43.954 46.1318 43.6152 46.9684 43.6152 47.9505C43.6152 48.9325 43.9431 49.7499 44.6124 50.4192C45.279 51.0886 46.1123 51.4205 47.0904 51.4205C48.0684 51.4205 48.9181 51.0803 49.6038 50.4028C50.2896 49.7225 50.6283 48.8968 50.6283 47.923C50.6283 46.9492 50.2896 46.1236 49.6038 45.435C48.9181 44.7465 48.0958 44.4064 47.1177 44.4064ZM48.8279 49.6841C48.3608 50.1532 47.7952 50.3808 47.1177 50.3808C46.4402 50.3808 45.8637 50.1422 45.3992 49.6731C44.943 49.2041 44.7135 48.617 44.7135 47.9285C44.7135 47.24 44.943 46.6338 45.4074 46.1647C45.8746 45.6874 46.4511 45.4487 47.1177 45.4487C47.7843 45.4487 48.3608 45.6874 48.8279 46.1565C49.2951 46.6255 49.5328 47.2208 49.5328 47.9285C49.5328 48.6362 49.2951 49.215 48.8279 49.6813V49.6841Z"
        fill="#002B36" />
    <path
        d="M57.6 46.5924C57.6 46.0245 57.4087 45.5363 57.0344 45.133C56.6602 44.7298 56.1192 44.5268 55.4171 44.5268H53.0293V51.3105H54.0811V48.6469H54.9772L56.6219 51.3105H57.8923L56.0919 48.5482C57.07 48.2821 57.6 47.4839 57.6 46.5924ZM54.0784 47.6677V45.528H55.4144C56.1083 45.528 56.5126 45.9861 56.5126 46.5841C56.5126 47.1821 56.1001 47.6677 55.2504 47.6677H54.0811H54.0784Z"
        fill="#002B36" />
    <path
        d="M62.366 44.5268L59.6777 51.3105H60.8115L61.4508 49.6399H63.937L64.5763 51.3105H65.7101L63.0491 44.5268H62.3633H62.366ZM61.7896 48.6661L62.7048 46.2056L63.62 48.6661H61.7923H61.7896Z"
        fill="#002B36" />
    <path
        d="M70.3037 44.5268H67.752V51.3105H70.2217C71.2271 51.3105 72.0139 51.0088 72.5904 50.4025C73.1668 49.7963 73.4592 48.9706 73.4592 47.9337C73.4592 46.8968 73.175 46.0602 72.6095 45.4457C72.0522 44.8313 71.2845 44.5268 70.3064 44.5268H70.3037ZM71.8036 49.6317C71.4375 50.0816 70.9266 50.301 70.2682 50.301H68.8065V45.5363H70.2791C70.9293 45.5363 71.4402 45.7557 71.8063 46.2056C72.1806 46.6555 72.3636 47.215 72.3636 47.9036C72.3636 48.5921 72.1806 49.1791 71.8063 49.629L71.8036 49.6317Z"
        fill="#002B36" />
    <path
        d="M78.9898 44.4064C78.0199 44.4064 77.1976 44.7547 76.5118 45.4433C75.8261 46.1318 75.4873 46.9684 75.4873 47.9505C75.4873 48.9325 75.8151 49.7499 76.4845 50.4192C77.1511 51.0886 77.9844 51.4205 78.9624 51.4205C79.9405 51.4205 80.7902 51.0803 81.4759 50.4028C82.1617 49.7225 82.5004 48.8968 82.5004 47.923C82.5004 46.9492 82.1617 46.1236 81.4759 45.435C80.7902 44.7465 79.9678 44.4064 78.9898 44.4064ZM80.7 49.6841C80.2328 50.1532 79.6673 50.3808 78.9898 50.3808C78.3122 50.3808 77.7358 50.1422 77.2713 49.6731C76.8151 49.2041 76.5856 48.617 76.5856 47.9285C76.5856 47.24 76.8151 46.6338 77.2795 46.1647C77.7467 45.6874 78.3232 45.4487 78.9898 45.4487C79.6564 45.4487 80.2328 45.6874 80.7 46.1565C81.1672 46.6255 81.4049 47.2208 81.4049 47.9285C81.4049 48.6362 81.1672 49.215 80.7 49.6813V49.6841Z"
        fill="#002B36" />
    <path
        d="M89.472 46.5924C89.472 46.0245 89.2808 45.5363 88.9065 45.133C88.5322 44.7298 87.9913 44.5268 87.2892 44.5268H84.9014V51.3105H85.9532V48.6469H86.8493L88.494 51.3105H89.7644L87.964 48.5482C88.942 48.2821 89.472 47.4839 89.472 46.5924ZM85.9505 47.6677V45.528H87.2864C87.9804 45.528 88.3847 45.9861 88.3847 46.5841C88.3847 47.1821 87.9722 47.6677 87.1225 47.6677H85.9532H85.9505Z"
        fill="#002B36" />
    <path
        d="M95.3418 44.5268H94.6561L91.9678 51.3105H93.1016L93.7409 49.6399H96.227L96.8663 51.3105H98.0001L95.3391 44.5268H95.3418ZM94.0796 48.6661L94.9949 46.2056L95.9101 48.6661H94.0824H94.0796Z"
        fill="#002B36" />
</svg>